<svg width="48" height="48" viewBox="0 0 48 48" fill="none" xmlns="http://www.w3.org/2000/svg">
<rect width="48" height="48" fill="#C4C4C4" fill-opacity="0.01"/>
<path d="M7.40985 31.6639L8.3391 32.244C8.49364 32.341 8.653 32.4301 8.81656 32.511C8.02908 34.2874 7.86798 36.2785 8.35963 38.1584L8.67794 39.1852L9.70474 39.5035C10.3588 39.7019 11.039 39.8005 11.7224 39.7961C12.9674 39.7756 14.1973 39.5195 15.347 39.0414C15.4291 39.2057 15.5215 39.37 15.6191 39.524L16.1992 40.4532L17.2928 40.4943H17.5443C19.5363 40.4943 21.6515 39.5445 23.5357 37.8657C23.6794 38.0043 23.8283 38.1378 23.9823 38.261L24.8295 38.9439L25.8563 38.6255C28.1357 37.9222 30.1329 35.884 31.401 33.0808L31.4985 33.1168L32.5253 33.4556L33.3878 32.7779C34.38 31.9556 35.1202 30.8701 35.5235 29.6462L37.0021 29.9183L37.6028 28.3062C38.4037 26.0267 37.1972 22.6589 35.8059 20.2305C35.5184 19.7171 35.2052 19.2448 34.8767 18.7827L36.7814 17.2733C37.5007 16.7091 37.9428 15.8628 37.9948 14.95C38.0469 14.0373 37.704 13.1462 37.0535 12.5038L35.4311 10.8507C34.7878 10.2094 33.9014 9.87302 32.9946 9.92596C32.0878 9.9789 31.2466 10.4161 30.6822 11.1279L29.1831 13.0224C28.7056 12.6835 28.2025 12.3601 27.6788 12.0572C25.4147 10.748 23.0582 10.0036 21.2716 10.0036C20.7033 9.99592 20.1378 10.0827 19.5979 10.2603L17.9448 10.8507L18.2169 12.3293C16.993 12.7326 15.9075 13.4728 15.0852 14.465L14.4023 15.3275L14.7463 16.3543C14.7605 16.386 14.7725 16.4186 14.7822 16.4519C11.9791 17.72 9.9409 19.7119 9.23754 21.9914L8.9141 23.0439L9.61233 23.8961C9.7323 24.0472 9.86086 24.1911 9.99737 24.3274C8.25182 26.268 7.2969 28.4757 7.36877 30.5395L7.40985 31.6639ZM17.8524 17.8483C19.1345 18.942 20.679 19.6833 22.3343 19.9994C21.9743 20.4079 21.6399 20.8382 21.3332 21.2881C21.2203 21.4472 21.1176 21.6167 21.0149 21.8015V21.8323C20.5074 22.6648 20.1121 23.5607 19.8392 24.4968C19.1611 24.6192 18.4745 24.6896 17.7856 24.7073C16.2771 24.7773 14.772 24.5089 13.3807 23.9218C12.6677 23.6208 12.0285 23.1689 11.5068 22.5972C12.205 20.5077 14.6744 18.6697 17.8524 17.8483ZM30.0302 30.0159C29.2036 33.1989 27.3708 35.6632 25.3069 36.3923C24.734 35.8685 24.2806 35.2277 23.9772 34.5132C23.3957 33.1202 23.1276 31.6164 23.1917 30.1083C23.2161 29.4196 23.2881 28.7334 23.4073 28.0547C24.3434 27.7818 25.2394 27.3865 26.0719 26.879H26.1027C26.2618 26.7763 26.4313 26.6736 26.5904 26.5607C27.041 26.2457 27.4714 25.9027 27.879 25.5339C28.1933 27.1898 28.9349 28.7348 30.0302 30.0159ZM17.5443 38.1994C17.1837 37.5419 16.9651 36.8161 16.9026 36.0688C16.8131 35.0142 16.9016 33.9521 17.1644 32.9268C18.5805 32.8136 19.952 32.3781 21.1741 31.6536C21.6976 31.3449 22.2001 31.0018 22.6783 30.6268C22.6818 31.9815 22.9432 33.3231 23.4484 34.58C21.6926 36.8235 19.4439 38.1943 17.5443 38.1994ZM16.3635 35.9507C14.3099 37.265 12.1485 37.7836 10.5313 37.3472C10.1001 35.7351 10.6186 33.5737 11.9278 31.515C12.128 31.515 12.3333 31.515 12.5438 31.515C13.3631 31.5191 14.18 31.426 14.9773 31.2377C14.9847 31.6778 15.0521 32.1148 15.1776 32.5366L15.2186 32.6701L15.3521 32.7112C15.776 32.835 16.2146 32.9006 16.6562 32.9063C16.4059 33.9006 16.3072 34.927 16.3635 35.9507ZM13.2831 24.4249C14.5401 24.9294 15.8819 25.189 17.2363 25.1899C16.8582 25.6785 16.515 26.1932 16.2095 26.7301C15.5037 27.9482 15.0825 29.3102 14.9773 30.7141C13.9465 30.9853 12.8774 31.0807 11.8148 30.9964C11.0662 30.9362 10.3385 30.7193 9.67907 30.3598C9.6842 28.4346 11.0601 26.1859 13.3088 24.4249H13.2831ZM19.5979 27.3102C19.6284 27.5399 19.6782 27.7666 19.7468 27.9879L19.7879 28.1163L19.9162 28.1574C20.1375 28.226 20.3642 28.2758 20.5939 28.3062C20.8658 28.3477 21.1404 28.3683 21.4154 28.3678C21.7022 28.3663 21.9886 28.3457 22.2727 28.3062C22.4781 28.2754 22.6783 28.2395 22.8683 28.1984C22.7702 28.7846 22.7068 29.376 22.6783 29.9696C22.1238 30.4267 21.5313 30.8355 20.9071 31.1915C19.7098 31.9133 18.3548 32.3327 16.9591 32.4134C16.5096 32.4266 16.0605 32.3782 15.6242 32.2697C15.5157 31.83 15.4707 31.377 15.4907 30.9246C15.5713 29.5271 15.9869 28.1694 16.7024 26.9663C17.0586 26.3406 17.4674 25.7463 17.9242 25.1899C18.518 25.17 19.1098 25.1099 19.6955 25.0102C19.6544 25.2156 19.6133 25.4158 19.5877 25.6109C19.5144 26.1752 19.5179 26.7468 19.5979 27.3102ZM27.8123 24.964C27.348 25.3837 26.8557 25.7714 26.3388 26.1243C26.1797 26.2372 26.0103 26.3399 25.8254 26.4426H25.7998C24.9706 26.9515 24.0735 27.3404 23.1352 27.5977C22.8345 27.6771 22.5293 27.7388 22.2214 27.7826C21.7106 27.8551 21.192 27.8551 20.6812 27.7826C20.5118 27.7826 20.3578 27.7261 20.214 27.6902C20.1781 27.5464 20.1473 27.3924 20.1216 27.2178C20.0491 26.707 20.0491 26.1885 20.1216 25.6776C20.1626 25.3713 20.2226 25.0678 20.3013 24.7689C20.5587 23.8307 20.9476 22.9336 21.4564 22.1044C21.5591 21.9401 21.6618 21.7707 21.7799 21.591C22.123 21.0644 22.504 20.5634 22.9196 20.0919C23.4986 20.1852 24.0839 20.2332 24.6703 20.2356C25.6654 20.2438 26.6553 20.0913 27.6018 19.7838C27.88 19.6905 28.1511 19.5773 28.413 19.445C28.3565 19.5733 28.2949 19.6965 28.2487 19.8249L28.1922 19.9532C28.1511 20.0559 28.1101 20.1586 28.0793 20.2613C27.6048 21.7822 27.4992 23.3942 27.7712 24.964H27.8123ZM32.0889 30.8732C31.4807 30.6276 30.9364 30.2466 30.4974 29.7592C29.3451 28.4433 28.5917 26.8262 28.3257 25.0975V25.0308L28.0741 25.0718L28.3308 25.0256C28.0437 23.4986 28.1353 21.9244 28.5978 20.441C28.6286 20.3486 28.6645 20.251 28.7005 20.1586L28.7518 20.0405C28.8032 19.9173 28.8545 19.7992 28.9264 19.6555C28.9664 19.5726 29.011 19.4921 29.0599 19.4142C29.0775 19.375 29.0981 19.3372 29.1215 19.3012C29.1215 19.2756 29.1574 19.2499 29.1728 19.2191C29.4298 20.2614 29.8053 21.2708 30.292 22.2276C30.4409 22.5254 30.6103 22.8283 30.8054 23.1312C31.5916 24.5456 32.6184 25.8121 33.8396 26.8739C33.6291 28.6348 33.0233 30.0826 32.0889 30.8732ZM29.0445 18.8597L28.9931 18.8135H29.0496C29.0465 18.8253 29.0465 18.8376 29.0496 18.8494L29.0445 18.8597ZM27.4375 19.3115C25.9416 19.7736 24.3555 19.8635 22.8169 19.5733L22.7861 19.6709V19.5785C21.0466 19.313 19.4198 18.5539 18.0988 17.3914C17.6135 16.9537 17.2342 16.4111 16.9899 15.805C17.7959 14.8706 19.2437 14.2648 21.0098 14.1108C22.0722 15.3334 23.3406 16.3603 24.7576 17.145C25.0554 17.3144 25.3583 17.4838 25.656 17.6584C26.6109 18.1482 27.6209 18.5222 28.6645 18.7724C28.2778 18.9991 27.866 19.18 27.4375 19.3115ZM32.2943 12.4217C32.5074 12.1514 32.8331 11.9943 33.1773 11.9956C33.4771 11.9956 33.7649 12.1135 33.9782 12.3241L35.6057 13.9311C35.8412 14.1587 35.9663 14.4774 35.9486 14.8044C35.9309 15.1315 35.772 15.4347 35.5133 15.6356L32.1865 18.2693L31.8168 18.6235C32.594 19.4569 33.268 20.3808 33.8242 21.3754C35.1282 23.6394 35.7956 25.9959 35.503 27.3C35.0383 27.1354 34.607 26.8884 34.2298 26.5709C33.0089 25.5362 31.9876 24.2869 31.2161 22.8847C31.0467 22.5921 30.8876 22.2995 30.7438 22.0068C30.1721 20.92 29.7605 19.7563 29.5219 18.5517V18.4695L29.409 18.3514H29.3268C28.1333 18.1213 26.9797 17.7183 25.9025 17.1552C25.6098 17.0115 25.3172 16.8523 25.0245 16.6829C23.6224 15.9114 22.3731 14.8901 21.3383 13.6692C21.0149 13.2917 20.7626 12.8585 20.5939 12.3909C21.8826 12.0982 24.2544 12.7657 26.5185 14.0697C27.5309 14.6408 28.4719 15.3302 29.3217 16.1233L29.5014 15.9385L29.6811 15.7536L32.2943 12.4217Z" fill="#333333"/>
</svg>
