<svg width="40" height="41" viewBox="0 0 40 41" fill="none" xmlns="http://www.w3.org/2000/svg">
<path d="M35.7552 10.6994C35.5121 10.5811 35.2613 10.4792 35.0045 10.3946L34.777 10.3172L34.868 10.0943C35.3186 8.97738 35.5204 7.77567 35.4594 6.57281C35.4686 6.48813 35.4686 6.40271 35.4594 6.31803C36.2966 5.0714 36.8244 4.2752 37.6706 2.86023L36.0964 1.90479C35.2319 3.3152 34.7315 4.07046 33.9216 5.30798C33.8369 5.32178 33.7533 5.34154 33.6714 5.36713C32.5643 5.74422 31.5379 6.32608 30.6458 7.08238L30.4684 7.23252L30.3228 7.05053C30.1594 6.84682 29.9831 6.65382 29.795 6.47272C30.3137 5.74338 30.9485 5.10401 31.6741 4.58003L30.5503 3.14686C29.5174 3.89828 28.6411 4.84412 27.9706 5.9313H27.9387C27.6111 6.06943 27.3323 6.30234 27.138 6.60011C26.7685 7.17134 26.4633 7.78168 26.228 8.42L26.1871 8.52919L26.0779 8.56104C25.6957 8.67528 25.3637 8.91591 25.1361 9.2435C24.7424 9.79991 24.4113 10.398 24.1488 11.027L24.1079 11.1316L23.9941 11.1589C23.6107 11.2631 23.2729 11.492 23.0341 11.8096C22.6239 12.3528 22.2759 12.9404 21.9968 13.5612L21.9467 13.6613L21.8375 13.6886C21.4469 13.7747 21.0981 13.9934 20.8502 14.3074C20.4228 14.8371 20.0551 15.4123 19.7538 16.0226L19.7037 16.1272H19.59C19.1985 16.2014 18.8449 16.4088 18.589 16.7142C18.142 17.2269 17.7543 17.7886 17.4334 18.3885L17.3788 18.4886H17.2696C16.8755 18.5528 16.5148 18.7484 16.2459 19.0436C15.7855 19.544 15.3812 20.0932 15.0402 20.6815L14.9856 20.7816H14.8719C14.4762 20.8295 14.1087 21.0108 13.83 21.2957C13.3497 21.7805 12.9254 22.3177 12.5652 22.8972L12.506 22.9928H12.3923C11.9906 23.0506 11.621 23.245 11.3459 23.5433C10.8438 24.013 10.3966 24.538 10.0128 25.1084L9.94909 25.204H9.83534C9.4343 25.2271 9.05349 25.3878 8.75706 25.6589C7.35182 26.9046 6.36913 28.5567 5.94532 30.3861C5.75074 31.23 5.70151 32.1008 5.79973 32.9613C5.80096 32.984 5.80096 33.0068 5.79973 33.0295C5.83697 33.2538 5.89329 33.4745 5.96807 33.6892C4.28467 34.8585 3.23823 35.5501 1.25 36.7557L2.20999 38.3026C4.18913 37.0924 5.30836 36.3645 7.01451 35.1815C7.17934 35.3222 7.35591 35.4486 7.54228 35.5592L7.59688 35.5819C8.38958 35.9823 9.25424 36.2205 10.1402 36.2826C10.3313 36.2826 10.5269 36.3053 10.7225 36.3053C12.5676 36.2753 14.3584 35.6763 15.8501 34.5901C16.2156 34.3344 16.4885 33.9673 16.6281 33.5436L16.6599 33.4435L16.7555 33.4026C17.4541 33.1012 18.1127 32.7145 18.7164 32.2515C19.0756 31.9845 19.3376 31.6075 19.4626 31.1778L19.4899 31.0777L19.5809 31.0322C20.2635 30.7047 20.9037 30.2953 21.4872 29.8128C21.8384 29.5358 22.088 29.1502 22.197 28.7164L22.2243 28.6163L22.3153 28.5708C22.9866 28.22 23.6129 27.7891 24.1806 27.2877C24.5204 26.9994 24.7569 26.608 24.854 26.1731L24.8768 26.073L24.9632 26.0184C25.6232 25.6393 26.2344 25.1809 26.7831 24.6534C27.1137 24.352 27.3373 23.9512 27.4201 23.5115V23.4114L27.5065 23.3568C28.1551 22.965 28.7527 22.4943 29.2854 21.9555C29.6047 21.6449 29.8154 21.2396 29.886 20.7998V20.6997L29.9725 20.6406C30.617 20.2292 31.211 19.7436 31.7423 19.1938C32.049 18.8707 32.2436 18.4576 32.2974 18.0154V17.9107L32.3793 17.8516C33.0098 17.4208 33.5857 16.9151 34.0945 16.3456C34.3932 16.0117 34.5767 15.5906 34.6177 15.1445V15.0444L34.6996 14.9807C35.3027 14.5204 35.8508 13.9922 36.333 13.4065C36.5852 13.0949 36.7431 12.7176 36.788 12.3191C37.6933 11.2642 38.3523 10.0208 38.717 8.67934L36.9836 8.13337C36.7354 9.05699 36.319 9.92689 35.7552 10.6994ZM30.4547 9.73487C31.2841 8.61655 32.4114 7.75413 33.7078 7.24617C33.6862 8.66341 33.2075 10.0358 32.3429 11.1589L32.2018 11.3364C31.8499 11.353 31.4999 11.3987 31.1554 11.4729C30.9279 11.5229 30.7004 11.5821 30.4775 11.6549C30.4775 11.5502 30.4775 11.4501 30.4775 11.3455C30.4775 11.2408 30.4775 11.0816 30.4775 10.9497C30.4558 10.6025 30.4009 10.2582 30.3137 9.92141C30.3637 9.85772 30.4092 9.79857 30.4547 9.73487ZM28.5029 7.6329C29.1353 8.23259 29.5943 8.99176 29.8314 9.83042C29.8636 9.92876 29.8894 10.0291 29.9088 10.1307C29.9361 10.2399 29.9588 10.3536 29.977 10.4674C29.9952 10.5811 30.0225 10.8041 30.0362 10.977C30.0543 11.2572 30.0543 11.5384 30.0362 11.8187C29.7648 11.9247 29.5003 12.0478 29.2445 12.1872C29.149 12.2372 29.0534 12.2873 28.9624 12.3464L28.694 12.5102C28.5393 12.6103 28.3876 12.7149 28.239 12.8241C28.1158 12.1514 27.8673 11.5079 27.5065 10.9269C27.5563 9.76258 27.899 8.62964 28.5029 7.6329ZM26.451 10.3172C26.6718 10.5409 26.8713 10.7846 27.047 11.0452C27.1243 11.1726 27.2017 11.3 27.2745 11.4365C27.3831 11.6389 27.4774 11.8487 27.5565 12.0643C27.6833 12.4135 27.7732 12.7748 27.825 13.1426C27.825 13.2245 27.825 13.311 27.8477 13.3929C27.8705 13.4748 27.8477 13.5794 27.8477 13.6704V13.7341C27.8477 13.7796 27.8477 13.8251 27.8477 13.866C27.8477 13.9297 27.8477 13.9889 27.8477 14.048C27.8521 14.1314 27.8521 14.2149 27.8477 14.2983C27.8477 14.3756 27.8477 14.4529 27.8477 14.5303C27.201 14.7617 26.5887 15.08 26.0278 15.4766C25.9287 14.8 25.7017 14.1484 25.359 13.5566C25.4473 12.4027 25.8227 11.2892 26.451 10.3172ZM24.3126 12.9288C24.5282 13.1609 24.7202 13.4139 24.8859 13.684C24.9665 13.8084 25.0394 13.9375 25.1042 14.0708C25.2062 14.2801 25.2943 14.496 25.3681 14.7168C25.4834 15.0668 25.5597 15.4284 25.5956 15.7951C25.5956 15.8861 25.5956 15.9771 25.5956 16.0681C25.5956 16.1636 25.5956 16.2501 25.5956 16.3456C25.5979 16.3881 25.5979 16.4306 25.5956 16.473C25.5956 16.5367 25.5956 16.6004 25.5956 16.6641C25.5956 16.7278 25.5956 16.8325 25.5956 16.9143L25.5683 17.1509C24.9144 17.361 24.2916 17.6579 23.7166 18.0336C23.6378 17.3554 23.4326 16.6979 23.1115 16.0954C23.2441 14.9568 23.6568 13.8689 24.3126 12.9288ZM22.0923 15.4675C22.2996 15.7076 22.4839 15.9666 22.6428 16.241C22.7156 16.3729 22.7839 16.4867 22.8476 16.6232C22.9441 16.8322 23.0247 17.0481 23.0887 17.2692C23.1935 17.6219 23.2591 17.985 23.2843 18.3521V18.6296V18.7342C23.2843 18.7934 23.2843 18.848 23.2843 18.9071C23.2866 18.9496 23.2866 18.9921 23.2843 19.0345C23.2889 19.0966 23.2889 19.159 23.2843 19.2211C23.2843 19.3075 23.2844 19.3894 23.2571 19.4758C23.249 19.5553 23.2369 19.6343 23.2207 19.7124C22.5603 19.8996 21.9282 20.1751 21.3416 20.5314C21.288 19.8477 21.1042 19.1806 20.8002 18.5659C20.9712 17.443 21.4148 16.3792 22.0923 15.4675ZM19.8175 17.9289C20.0108 18.1807 20.177 18.4521 20.3134 18.7388C20.3862 18.8693 20.45 19.0046 20.5045 19.1437C20.6001 19.3661 20.6777 19.5959 20.7365 19.8307C20.8292 20.171 20.8841 20.5204 20.9003 20.8726C20.9048 20.9362 20.9048 21.0001 20.9003 21.0637C20.9025 21.091 20.9025 21.1183 20.9003 21.1456C20.9003 21.2366 20.9003 21.3276 20.9003 21.4186V21.546C20.8972 21.6101 20.8896 21.674 20.8775 21.7371C20.8699 21.8226 20.8577 21.9076 20.8411 21.9918C20.8411 22.0692 20.8138 22.1465 20.8002 22.2284C20.1318 22.3962 19.489 22.6533 18.8893 22.9928C18.8664 22.3085 18.7119 21.635 18.4343 21.0091C18.6305 19.887 19.0975 18.8297 19.7947 17.9289H19.8175ZM17.4334 20.3176C17.6252 20.5703 17.7914 20.8416 17.9293 21.1274C17.9977 21.2597 18.057 21.3965 18.1068 21.5369C18.1941 21.7644 18.2626 21.9988 18.3115 22.2375C18.388 22.5812 18.4277 22.9319 18.4298 23.284C18.4298 23.375 18.4298 23.466 18.4298 23.5615C18.4298 23.6571 18.4298 23.748 18.4298 23.839C18.4319 23.8465 18.4319 23.8544 18.4298 23.8618C18.432 23.9042 18.432 23.9467 18.4298 23.9892C18.4252 24.0504 18.416 24.1113 18.4025 24.1712C18.3917 24.2553 18.3765 24.3389 18.357 24.4214L18.3024 24.6625C17.6307 24.808 16.9818 25.0437 16.3733 25.3632C16.3626 24.6762 16.2237 23.9973 15.9638 23.3613C16.1868 22.2426 16.684 21.1968 17.4106 20.3176H17.4334ZM14.9765 22.6197C15.1559 22.8812 15.3083 23.1601 15.4315 23.4523C15.4952 23.586 15.5484 23.7244 15.5908 23.8663C15.6742 24.0949 15.7352 24.3311 15.7727 24.5715C15.8412 24.9113 15.8687 25.258 15.8546 25.6043C15.8603 25.6158 15.8603 25.6293 15.8546 25.6407C15.8546 25.7317 15.8546 25.8273 15.8546 25.9183C15.8546 26.0093 15.8546 26.1048 15.8273 26.1958C15.8092 26.2014 15.7933 26.2126 15.7818 26.2277C15.7861 26.2592 15.7953 26.29 15.8091 26.3186C15.8091 26.3869 15.8091 26.4506 15.7727 26.5143C15.7363 26.578 15.7409 26.6781 15.7227 26.7554C15.7045 26.8328 15.6817 26.9192 15.659 26.9966C14.9844 27.1188 14.3294 27.3315 13.7117 27.629C13.7221 26.9445 13.6048 26.2641 13.3659 25.6225C13.6388 24.5057 14.1844 23.474 14.9538 22.6197H14.9765ZM12.4423 24.8445C12.6244 25.1059 12.777 25.3867 12.8973 25.6817C12.9596 25.8201 13.0113 25.9631 13.052 26.1094C13.1058 26.3401 13.1438 26.5741 13.1657 26.81C13.2175 27.167 13.2327 27.5283 13.2112 27.8883C13.2112 27.9793 13.2112 28.0748 13.1839 28.1658C13.1566 28.2568 13.1839 28.3478 13.1475 28.4388C13.1284 28.445 13.1112 28.456 13.0975 28.4707C13.1039 28.5018 13.113 28.5322 13.1248 28.5617C13.1248 28.6254 13.1248 28.6891 13.0839 28.7482C13.0675 28.8298 13.0462 28.9103 13.0202 28.9893C13.0022 29.0695 12.9794 29.1485 12.9519 29.2259C12.2716 29.3279 11.6077 29.5191 10.9773 29.7946C11.0074 29.1309 10.9133 28.4674 10.6998 27.8383C11.0115 26.7113 11.6031 25.6815 12.4196 24.8445H12.4423ZM7.84256 30.4726C8.14025 29.1416 8.82581 27.9288 9.81259 26.9875C9.97993 27.2584 10.1172 27.5467 10.2221 27.8474C10.2819 27.9943 10.3276 28.1467 10.3586 28.3023C10.4231 28.53 10.4672 28.763 10.4905 28.9984C10.5315 29.3521 10.5315 29.7094 10.4905 30.0631C10.4864 30.1562 10.4757 30.249 10.4587 30.3406C10.4587 30.4316 10.4314 30.5226 10.4132 30.6136C10.3965 30.6199 10.3811 30.6292 10.3677 30.6409C10.3659 30.6712 10.3659 30.7016 10.3677 30.7319C10.3573 30.7981 10.3421 30.8635 10.3222 30.9275C10.3042 31.0092 10.2815 31.0897 10.2539 31.1687C10.2539 31.246 10.2039 31.3234 10.1766 31.3961C9.31581 31.4987 8.47967 31.7512 7.70607 32.1423C7.67027 31.582 7.71625 31.0196 7.84256 30.4726ZM10.7271 34.4035C10.1585 34.3693 9.59927 34.2434 9.07099 34.0304L8.8435 33.9258L8.77071 33.8939L8.61602 33.8212C8.38238 33.6985 8.16008 33.5554 7.95176 33.3935C7.90849 33.2712 7.87204 33.1467 7.84256 33.0204C7.84256 32.9522 7.81071 32.8794 7.79706 32.8111C7.79535 32.7808 7.79535 32.7504 7.79706 32.7201C7.79515 32.6868 7.79515 32.6534 7.79706 32.62C8.48297 32.2687 9.21997 32.0276 9.98093 31.9057L10.2403 31.8739H10.3631H10.4996C10.5814 31.8693 10.6635 31.8693 10.7453 31.8739H11.2003L11.2867 31.9194C11.355 31.9558 11.4277 31.9922 11.5051 32.024L11.6234 31.9012L11.8736 31.9285C12.2431 32.0672 12.6281 32.1604 13.0202 32.206C13.2313 32.2836 13.4366 32.3764 13.6344 32.4835C13.7711 32.5489 13.9034 32.6234 14.0302 32.7065C14.2951 32.8732 14.5421 33.0668 14.7673 33.2843C13.5772 34.0849 12.1595 34.4777 10.7271 34.4035ZM14.1803 32.2151C13.588 31.8564 12.9362 31.6068 12.2558 31.478L11.9919 31.4371L11.728 31.4007C11.6143 31.4007 11.5005 31.4007 11.3823 31.3734C11.2186 31.3643 11.0545 31.3643 10.8909 31.3734C10.8542 31.3518 10.8193 31.3274 10.7862 31.3006L10.7134 31.2506C10.7252 31.2262 10.7328 31.2001 10.7362 31.1732C10.7834 31.0237 10.8229 30.8718 10.8545 30.7182C10.8757 30.606 10.8939 30.4923 10.9091 30.377C11.4869 30.0981 12.0987 29.8962 12.729 29.7764L12.9929 29.7309L13.2522 29.6991H13.4933H13.7436H13.9301L14.0256 29.7446L14.0711 29.6991H14.3487L14.5898 29.7218C14.6 29.7261 14.6115 29.7261 14.6217 29.7218C15.0135 29.7621 15.3996 29.846 15.7727 29.9721C15.9817 30.0429 16.1868 30.1249 16.387 30.2178C16.5234 30.2815 16.6554 30.3543 16.7828 30.4271C17.0513 30.5898 17.3042 30.7771 17.538 30.9867C16.5497 31.6908 15.3897 32.1152 14.1803 32.2151ZM16.9693 29.9402C16.3643 29.6108 15.7071 29.3876 15.0266 29.2805L14.7627 29.2487C14.6738 29.2348 14.5842 29.2257 14.4943 29.2214H14.1485C13.9847 29.2214 13.8164 29.2214 13.648 29.2214L13.5479 29.1531L13.4797 29.1076C13.4797 29.0803 13.4797 29.053 13.4797 29.0257C13.5206 28.8665 13.5525 28.7073 13.5798 28.5708C13.6071 28.4343 13.6162 28.3433 13.6253 28.2341C13.9968 28.0365 14.385 27.8721 14.7855 27.7427C15.0022 27.6724 15.2224 27.6132 15.4452 27.5653C15.5316 27.5653 15.6226 27.5243 15.709 27.5107C15.7947 27.4926 15.8813 27.4789 15.9684 27.4697L16.2004 27.4379H16.4507H16.6417L16.7373 27.4834C16.7548 27.4467 16.7778 27.4129 16.8055 27.3833H17.1013H17.3333H17.3742C17.7688 27.4145 18.1591 27.4862 18.539 27.5971C18.7502 27.6586 18.957 27.7346 19.1577 27.8246C19.2947 27.8825 19.4283 27.9478 19.5581 28.0202C19.8378 28.1706 20.1016 28.3489 20.3452 28.5526C19.3666 29.3104 18.199 29.7856 16.9693 29.9266V29.9402ZM19.6582 27.5607C19.0514 27.246 18.3937 27.0411 17.7155 26.9556L17.447 26.9283H17.1786H16.8055C16.654 26.9207 16.5021 26.9207 16.3506 26.9283C16.3142 26.9056 16.2778 26.8874 16.2414 26.8601C16.2176 26.8481 16.1948 26.8344 16.1731 26.8191C16.1752 26.7919 16.1752 26.7645 16.1731 26.7372C16.2095 26.578 16.2368 26.4187 16.2596 26.2549C16.2823 26.0912 16.2869 26.0275 16.296 25.9137C16.8571 25.5907 17.4604 25.3472 18.0886 25.1903L18.3479 25.1266L18.6027 25.0766L18.8393 25.0402L19.094 25.0083H19.276H19.4171H19.7128C19.8084 25.0083 19.8993 25.0083 19.9903 25.0083C20.6052 25.03 21.2116 25.1578 21.7829 25.386C21.9211 25.4392 22.0563 25.4999 22.1879 25.5679C22.4731 25.7096 22.743 25.8804 22.9932 26.0775C22.0389 26.8664 20.8844 27.3751 19.6582 27.5471V27.5607ZM22.2652 25.1084C21.6403 24.8167 20.9687 24.638 20.2815 24.5806H20.0222H19.7538H19.4034C19.2396 24.5806 19.0804 24.5806 18.9166 24.6216C18.8769 24.6055 18.8388 24.5857 18.8029 24.5625L18.7301 24.517V24.4305C18.7619 24.2713 18.7801 24.112 18.7983 23.9755C18.8165 23.839 18.7983 23.748 18.7983 23.6343C19.1746 23.3859 19.5737 23.1742 19.9903 23.0019C20.1996 22.92 20.4135 22.8472 20.6319 22.7835L20.8912 22.7153L21.146 22.6561L21.3871 22.6106L21.6373 22.5742H21.8284L21.9194 22.6061L21.9558 22.5606H22.2334H22.5109C22.9074 22.5602 23.3027 22.6045 23.6893 22.6925C23.9029 22.7372 24.1128 22.798 24.3171 22.8745C24.4604 22.9227 24.6002 22.9804 24.7357 23.0474C25.0226 23.1697 25.2956 23.3222 25.5501 23.5024C24.6237 24.3297 23.4871 24.8854 22.2652 25.1084ZM24.7994 22.5606C24.1652 22.2939 23.4893 22.1399 22.8021 22.1056H22.5427H22.2698C22.156 22.1056 22.0377 22.1056 21.924 22.1056L21.4326 22.1602C21.3934 22.1448 21.3554 22.1265 21.3189 22.1056L21.2506 22.0692C21.2526 22.0435 21.2526 22.0176 21.2506 21.9918C21.2956 21.8196 21.3306 21.6449 21.3553 21.4686C21.3553 21.3503 21.3553 21.232 21.3553 21.1183C21.7048 20.8903 22.0732 20.6924 22.4563 20.5268C22.6644 20.4358 22.877 20.3553 23.0933 20.2857L23.3526 20.2084L23.5983 20.1447L23.8303 20.0901L24.076 20.0446L24.2625 20.0173H24.399L24.6766 19.9945H24.9541C25.3399 19.9853 25.7256 20.0158 26.1052 20.0855C26.3247 20.1244 26.5407 20.1807 26.7512 20.2539C26.8963 20.2938 27.0378 20.3456 27.1744 20.4085C27.4692 20.5292 27.7499 20.6817 28.0115 20.8635C27.1182 21.7007 26.0143 22.2794 24.8176 22.5378L24.7994 22.5606ZM27.2699 19.9081C26.6286 19.6573 25.9475 19.5232 25.2589 19.5122H24.7312L24.3763 19.5441C24.217 19.5441 24.0578 19.585 23.9213 19.6169L23.7939 19.5577L23.7257 19.5259C23.7257 19.4986 23.7257 19.4758 23.7257 19.4486C23.7257 19.2848 23.7575 19.1164 23.7621 18.9526C23.7666 18.7888 23.7621 18.7251 23.7621 18.6114C24.2889 18.2301 24.8662 17.9239 25.4773 17.7015L25.7276 17.615L25.9778 17.5422C26.0553 17.5162 26.1343 17.4949 26.2144 17.4785C26.2936 17.4555 26.3741 17.4373 26.4555 17.4239L26.6557 17.3875H26.7785L27.047 17.3602C27.1404 17.3461 27.2346 17.3385 27.3291 17.3375C27.719 17.3086 28.1109 17.3208 28.4983 17.3739C28.7266 17.405 28.9518 17.4553 29.1717 17.524C29.3164 17.5594 29.4579 17.6066 29.5948 17.6651C29.8926 17.7756 30.1778 17.9175 30.4456 18.0882C29.5725 18.9727 28.4744 19.6019 27.2699 19.9081ZM29.6176 17.1782C28.9739 16.9488 28.2944 16.8363 27.6111 16.8461H27.3473C27.2579 16.8395 27.1682 16.8395 27.0788 16.8461C26.9615 16.8517 26.8445 16.8639 26.7285 16.8825C26.5693 16.8825 26.4055 16.9325 26.2462 16.9689L26.1234 16.9143C26.0992 16.9093 26.0761 16.9 26.0551 16.8871C26.0573 16.8613 26.0573 16.8354 26.0551 16.8097C26.0642 16.6445 26.0642 16.479 26.0551 16.3138C26.0551 16.2 26.0551 16.0817 26.0551 15.968C26.389 15.7155 26.7436 15.4918 27.1152 15.2992C27.3184 15.1961 27.5277 15.1005 27.7431 15.0126L27.9933 14.9216L28.2345 14.8397L28.471 14.7714C28.5518 14.7474 28.6339 14.7277 28.7167 14.7123L28.9169 14.6668H29.0398C29.1308 14.6668 29.2263 14.6349 29.3173 14.6258L29.5584 14.594H29.5903C29.9745 14.5552 30.3617 14.5552 30.7459 14.594C30.9734 14.6161 31.1986 14.6572 31.4193 14.7168C31.5731 14.751 31.725 14.7935 31.8742 14.8442C32.17 14.9482 32.455 15.0808 32.725 15.24C31.8909 16.168 30.8149 16.8454 29.6176 17.1964V17.1782ZM31.8924 14.3892C31.2366 14.1835 30.5499 14.0942 29.8633 14.1254H29.6039L29.34 14.1527L28.9897 14.2073C28.8259 14.2346 28.6667 14.271 28.5029 14.3119C28.4604 14.2992 28.4193 14.2824 28.3801 14.2619C28.3559 14.2568 28.3328 14.2475 28.3118 14.2346C28.3118 14.2118 28.3118 14.1891 28.3118 14.1618C28.3118 14.0617 28.3118 13.9616 28.3118 13.8615C28.3118 13.7614 28.3118 13.7295 28.3118 13.6613C28.3118 13.593 28.3118 13.4293 28.3118 13.3155C28.3982 13.2427 28.4892 13.1699 28.5802 13.1062C28.6712 13.0425 28.7486 12.9834 28.835 12.9288C28.9215 12.8742 29.0079 12.815 29.0944 12.765C29.1808 12.7149 29.2627 12.6604 29.3491 12.6103C29.5499 12.4978 29.7564 12.3961 29.9679 12.3055L30.2136 12.2054L30.4547 12.1144C30.7217 12.0233 30.9936 11.9473 31.2691 11.8869C31.4404 11.8492 31.6135 11.8204 31.7878 11.8005C31.9015 11.8005 32.0107 11.7732 32.1245 11.7686C32.229 11.7618 32.3339 11.7618 32.4384 11.7686C33.3183 11.7432 34.1893 11.9504 34.9635 12.3692C34.1512 13.3189 33.0912 14.0245 31.9015 14.4074L31.8924 14.3892Z" fill="#333333"/>
</svg>
